<mxfile host="app.diagrams.net" modified="2022-12-21T13:32:05.729Z" agent="5.0 (Macintosh; Intel Mac OS X 10_15_7) AppleWebKit/537.36 (KHTML, like Gecko) Chrome/106.0.0.0 YaBrowser/22.11.0.2468 Yowser/2.5 Safari/537.36" etag="if-X-z-9TpKw41PuwQqj" version="20.7.4" type="github">
  <diagram id="C5RBs43oDa-KdzZeNtuy" name="Page-1">
    <mxGraphModel dx="1781" dy="627" grid="1" gridSize="10" guides="1" tooltips="1" connect="1" arrows="1" fold="1" page="1" pageScale="1" pageWidth="827" pageHeight="1169" math="0" shadow="0">
      <root>
        <mxCell id="WIyWlLk6GJQsqaUBKTNV-0" />
        <mxCell id="WIyWlLk6GJQsqaUBKTNV-1" parent="WIyWlLk6GJQsqaUBKTNV-0" />
        <mxCell id="2sAaZkd2MSDt4CEduPBy-50" style="edgeStyle=orthogonalEdgeStyle;rounded=0;sketch=0;orthogonalLoop=1;jettySize=auto;html=1;entryX=0.5;entryY=1;entryDx=0;entryDy=0;" edge="1" parent="WIyWlLk6GJQsqaUBKTNV-1" source="WIyWlLk6GJQsqaUBKTNV-3" target="WIyWlLk6GJQsqaUBKTNV-10">
          <mxGeometry relative="1" as="geometry" />
        </mxCell>
        <mxCell id="WIyWlLk6GJQsqaUBKTNV-3" value="вызов рекламы" style="rounded=1;whiteSpace=wrap;html=1;fontSize=12;glass=0;strokeWidth=1;shadow=0;" parent="WIyWlLk6GJQsqaUBKTNV-1" vertex="1">
          <mxGeometry x="160" y="80" width="120" height="40" as="geometry" />
        </mxCell>
        <mxCell id="2sAaZkd2MSDt4CEduPBy-59" style="edgeStyle=orthogonalEdgeStyle;rounded=0;sketch=0;orthogonalLoop=1;jettySize=auto;html=1;entryX=0.5;entryY=0;entryDx=0;entryDy=0;" edge="1" parent="WIyWlLk6GJQsqaUBKTNV-1" source="WIyWlLk6GJQsqaUBKTNV-6" target="WIyWlLk6GJQsqaUBKTNV-11">
          <mxGeometry relative="1" as="geometry" />
        </mxCell>
        <mxCell id="2sAaZkd2MSDt4CEduPBy-60" value="Yes" style="edgeLabel;html=1;align=center;verticalAlign=middle;resizable=0;points=[];" vertex="1" connectable="0" parent="2sAaZkd2MSDt4CEduPBy-59">
          <mxGeometry x="-0.15" y="2" relative="1" as="geometry">
            <mxPoint x="8" as="offset" />
          </mxGeometry>
        </mxCell>
        <mxCell id="2sAaZkd2MSDt4CEduPBy-66" value="" style="edgeStyle=orthogonalEdgeStyle;rounded=0;sketch=0;orthogonalLoop=1;jettySize=auto;html=1;" edge="1" parent="WIyWlLk6GJQsqaUBKTNV-1" source="WIyWlLk6GJQsqaUBKTNV-6" target="2sAaZkd2MSDt4CEduPBy-65">
          <mxGeometry relative="1" as="geometry" />
        </mxCell>
        <mxCell id="2sAaZkd2MSDt4CEduPBy-67" value="No" style="edgeLabel;html=1;align=center;verticalAlign=middle;resizable=0;points=[];" vertex="1" connectable="0" parent="2sAaZkd2MSDt4CEduPBy-66">
          <mxGeometry x="-0.1823" y="2" relative="1" as="geometry">
            <mxPoint y="-12" as="offset" />
          </mxGeometry>
        </mxCell>
        <mxCell id="WIyWlLk6GJQsqaUBKTNV-6" value="Биллинг на хите за отрисовку?" style="rhombus;whiteSpace=wrap;html=1;shadow=0;fontFamily=Helvetica;fontSize=12;align=center;strokeWidth=1;spacing=6;spacingTop=-4;direction=west;" parent="WIyWlLk6GJQsqaUBKTNV-1" vertex="1">
          <mxGeometry x="170" y="280" width="100" height="102.5" as="geometry" />
        </mxCell>
        <mxCell id="2sAaZkd2MSDt4CEduPBy-49" style="edgeStyle=orthogonalEdgeStyle;rounded=0;sketch=0;orthogonalLoop=1;jettySize=auto;html=1;exitX=0.5;exitY=0;exitDx=0;exitDy=0;entryX=0.5;entryY=1;entryDx=0;entryDy=0;" edge="1" parent="WIyWlLk6GJQsqaUBKTNV-1" source="WIyWlLk6GJQsqaUBKTNV-10" target="WIyWlLk6GJQsqaUBKTNV-6">
          <mxGeometry relative="1" as="geometry" />
        </mxCell>
        <mxCell id="2sAaZkd2MSDt4CEduPBy-57" value="No" style="edgeLabel;html=1;align=center;verticalAlign=middle;resizable=0;points=[];" vertex="1" connectable="0" parent="2sAaZkd2MSDt4CEduPBy-49">
          <mxGeometry x="-0.18" y="1" relative="1" as="geometry">
            <mxPoint x="9" as="offset" />
          </mxGeometry>
        </mxCell>
        <mxCell id="2sAaZkd2MSDt4CEduPBy-52" style="edgeStyle=orthogonalEdgeStyle;rounded=0;sketch=0;orthogonalLoop=1;jettySize=auto;html=1;entryX=1;entryY=0.5;entryDx=0;entryDy=0;" edge="1" parent="WIyWlLk6GJQsqaUBKTNV-1" source="WIyWlLk6GJQsqaUBKTNV-10" target="2sAaZkd2MSDt4CEduPBy-51">
          <mxGeometry relative="1" as="geometry" />
        </mxCell>
        <mxCell id="2sAaZkd2MSDt4CEduPBy-53" value="Yes" style="edgeLabel;html=1;align=center;verticalAlign=middle;resizable=0;points=[];" vertex="1" connectable="0" parent="2sAaZkd2MSDt4CEduPBy-52">
          <mxGeometry x="-0.0979" y="2" relative="1" as="geometry">
            <mxPoint y="-12" as="offset" />
          </mxGeometry>
        </mxCell>
        <mxCell id="WIyWlLk6GJQsqaUBKTNV-10" value="Порог в eCPM?" style="rhombus;whiteSpace=wrap;html=1;shadow=0;fontFamily=Helvetica;fontSize=12;align=center;strokeWidth=1;spacing=6;spacingTop=-4;direction=west;" parent="WIyWlLk6GJQsqaUBKTNV-1" vertex="1">
          <mxGeometry x="170" y="150" width="100" height="87.5" as="geometry" />
        </mxCell>
        <mxCell id="2sAaZkd2MSDt4CEduPBy-58" style="edgeStyle=orthogonalEdgeStyle;rounded=0;sketch=0;orthogonalLoop=1;jettySize=auto;html=1;entryX=0.5;entryY=0;entryDx=0;entryDy=0;" edge="1" parent="WIyWlLk6GJQsqaUBKTNV-1" source="WIyWlLk6GJQsqaUBKTNV-11" target="WIyWlLk6GJQsqaUBKTNV-12">
          <mxGeometry relative="1" as="geometry" />
        </mxCell>
        <mxCell id="WIyWlLk6GJQsqaUBKTNV-11" value="Пересчитываем CPMV порог в eCPM умножая на прогноз видимости" style="rounded=1;whiteSpace=wrap;html=1;fontSize=12;glass=0;strokeWidth=1;shadow=0;" parent="WIyWlLk6GJQsqaUBKTNV-1" vertex="1">
          <mxGeometry x="160" y="420" width="120" height="75" as="geometry" />
        </mxCell>
        <mxCell id="2sAaZkd2MSDt4CEduPBy-18" style="edgeStyle=orthogonalEdgeStyle;rounded=0;orthogonalLoop=1;jettySize=auto;html=1;entryX=0.5;entryY=0;entryDx=0;entryDy=0;" edge="1" parent="WIyWlLk6GJQsqaUBKTNV-1" source="WIyWlLk6GJQsqaUBKTNV-12" target="2sAaZkd2MSDt4CEduPBy-17">
          <mxGeometry relative="1" as="geometry" />
        </mxCell>
        <mxCell id="WIyWlLk6GJQsqaUBKTNV-12" value="Отправляем запрос в DSP с полученным порогом в eCPM" style="rounded=1;whiteSpace=wrap;html=1;fontSize=12;glass=0;strokeWidth=1;shadow=0;" parent="WIyWlLk6GJQsqaUBKTNV-1" vertex="1">
          <mxGeometry x="354" y="540" width="120" height="40" as="geometry" />
        </mxCell>
        <mxCell id="2sAaZkd2MSDt4CEduPBy-24" style="edgeStyle=orthogonalEdgeStyle;rounded=0;orthogonalLoop=1;jettySize=auto;html=1;entryX=0.5;entryY=0;entryDx=0;entryDy=0;entryPerimeter=0;" edge="1" parent="WIyWlLk6GJQsqaUBKTNV-1" source="2sAaZkd2MSDt4CEduPBy-17" target="2sAaZkd2MSDt4CEduPBy-23">
          <mxGeometry relative="1" as="geometry" />
        </mxCell>
        <mxCell id="2sAaZkd2MSDt4CEduPBy-17" value="Получаем ответ от DSP принимая ставку за eCPM&amp;nbsp;" style="rounded=1;whiteSpace=wrap;html=1;fontSize=12;glass=0;strokeWidth=1;shadow=0;" vertex="1" parent="WIyWlLk6GJQsqaUBKTNV-1">
          <mxGeometry x="354" y="610" width="120" height="40" as="geometry" />
        </mxCell>
        <mxCell id="2sAaZkd2MSDt4CEduPBy-28" value="Yes" style="edgeStyle=orthogonalEdgeStyle;rounded=0;orthogonalLoop=1;jettySize=auto;html=1;" edge="1" parent="WIyWlLk6GJQsqaUBKTNV-1" source="2sAaZkd2MSDt4CEduPBy-23" target="2sAaZkd2MSDt4CEduPBy-27">
          <mxGeometry y="10" relative="1" as="geometry">
            <mxPoint as="offset" />
          </mxGeometry>
        </mxCell>
        <mxCell id="2sAaZkd2MSDt4CEduPBy-75" style="edgeStyle=orthogonalEdgeStyle;rounded=0;sketch=0;orthogonalLoop=1;jettySize=auto;html=1;entryX=1;entryY=0.5;entryDx=0;entryDy=0;" edge="1" parent="WIyWlLk6GJQsqaUBKTNV-1" source="2sAaZkd2MSDt4CEduPBy-23" target="2sAaZkd2MSDt4CEduPBy-31">
          <mxGeometry relative="1" as="geometry">
            <mxPoint x="280" y="740" as="targetPoint" />
          </mxGeometry>
        </mxCell>
        <mxCell id="2sAaZkd2MSDt4CEduPBy-76" value="No" style="edgeLabel;html=1;align=center;verticalAlign=middle;resizable=0;points=[];" vertex="1" connectable="0" parent="2sAaZkd2MSDt4CEduPBy-75">
          <mxGeometry x="-0.4149" y="-2" relative="1" as="geometry">
            <mxPoint x="-7" y="-8" as="offset" />
          </mxGeometry>
        </mxCell>
        <mxCell id="2sAaZkd2MSDt4CEduPBy-23" value="Аукцион приводим к eCPM?" style="strokeWidth=1;html=1;shape=mxgraph.flowchart.decision;whiteSpace=wrap;" vertex="1" parent="WIyWlLk6GJQsqaUBKTNV-1">
          <mxGeometry x="364" y="690" width="100" height="100" as="geometry" />
        </mxCell>
        <mxCell id="2sAaZkd2MSDt4CEduPBy-30" value="" style="edgeStyle=orthogonalEdgeStyle;rounded=0;sketch=0;orthogonalLoop=1;jettySize=auto;html=1;" edge="1" parent="WIyWlLk6GJQsqaUBKTNV-1" source="2sAaZkd2MSDt4CEduPBy-27" target="2sAaZkd2MSDt4CEduPBy-29">
          <mxGeometry relative="1" as="geometry" />
        </mxCell>
        <mxCell id="2sAaZkd2MSDt4CEduPBy-95" style="edgeStyle=orthogonalEdgeStyle;rounded=0;sketch=0;orthogonalLoop=1;jettySize=auto;html=1;entryX=0;entryY=0.5;entryDx=0;entryDy=0;fontSize=10;" edge="1" parent="WIyWlLk6GJQsqaUBKTNV-1" source="2sAaZkd2MSDt4CEduPBy-27" target="2sAaZkd2MSDt4CEduPBy-93">
          <mxGeometry relative="1" as="geometry" />
        </mxCell>
        <mxCell id="2sAaZkd2MSDt4CEduPBy-27" value="Приводим ставку Директа к eCPM" style="rounded=1;whiteSpace=wrap;html=1;strokeWidth=1;" vertex="1" parent="WIyWlLk6GJQsqaUBKTNV-1">
          <mxGeometry x="559" y="710" width="120" height="60" as="geometry" />
        </mxCell>
        <mxCell id="2sAaZkd2MSDt4CEduPBy-102" style="edgeStyle=orthogonalEdgeStyle;rounded=0;sketch=0;orthogonalLoop=1;jettySize=auto;html=1;entryX=0.5;entryY=0;entryDx=0;entryDy=0;entryPerimeter=0;fontSize=10;" edge="1" parent="WIyWlLk6GJQsqaUBKTNV-1" source="2sAaZkd2MSDt4CEduPBy-29" target="2sAaZkd2MSDt4CEduPBy-98">
          <mxGeometry relative="1" as="geometry" />
        </mxCell>
        <mxCell id="2sAaZkd2MSDt4CEduPBy-29" value="Проводим аукцион" style="whiteSpace=wrap;html=1;rounded=1;strokeWidth=1;" vertex="1" parent="WIyWlLk6GJQsqaUBKTNV-1">
          <mxGeometry x="559" y="815" width="120" height="30" as="geometry" />
        </mxCell>
        <mxCell id="2sAaZkd2MSDt4CEduPBy-35" value="" style="edgeStyle=orthogonalEdgeStyle;rounded=0;sketch=0;orthogonalLoop=1;jettySize=auto;html=1;" edge="1" parent="WIyWlLk6GJQsqaUBKTNV-1" source="2sAaZkd2MSDt4CEduPBy-31" target="2sAaZkd2MSDt4CEduPBy-34">
          <mxGeometry relative="1" as="geometry" />
        </mxCell>
        <mxCell id="2sAaZkd2MSDt4CEduPBy-96" style="edgeStyle=orthogonalEdgeStyle;rounded=0;sketch=0;orthogonalLoop=1;jettySize=auto;html=1;entryX=1;entryY=0.5;entryDx=0;entryDy=0;fontSize=10;" edge="1" parent="WIyWlLk6GJQsqaUBKTNV-1" source="2sAaZkd2MSDt4CEduPBy-31" target="2sAaZkd2MSDt4CEduPBy-82">
          <mxGeometry relative="1" as="geometry" />
        </mxCell>
        <mxCell id="2sAaZkd2MSDt4CEduPBy-31" value="Приводим ставку DSP к CPMV" style="rounded=1;whiteSpace=wrap;html=1;strokeWidth=1;" vertex="1" parent="WIyWlLk6GJQsqaUBKTNV-1">
          <mxGeometry x="155" y="715" width="119" height="50" as="geometry" />
        </mxCell>
        <mxCell id="2sAaZkd2MSDt4CEduPBy-103" style="edgeStyle=orthogonalEdgeStyle;rounded=0;sketch=0;orthogonalLoop=1;jettySize=auto;html=1;entryX=0.5;entryY=0;entryDx=0;entryDy=0;entryPerimeter=0;fontSize=10;" edge="1" parent="WIyWlLk6GJQsqaUBKTNV-1" source="2sAaZkd2MSDt4CEduPBy-34" target="2sAaZkd2MSDt4CEduPBy-97">
          <mxGeometry relative="1" as="geometry" />
        </mxCell>
        <mxCell id="2sAaZkd2MSDt4CEduPBy-34" value="Проводим аукцион" style="rounded=1;whiteSpace=wrap;html=1;strokeWidth=1;" vertex="1" parent="WIyWlLk6GJQsqaUBKTNV-1">
          <mxGeometry x="154" y="815" width="120" height="30" as="geometry" />
        </mxCell>
        <mxCell id="2sAaZkd2MSDt4CEduPBy-63" value="" style="edgeStyle=orthogonalEdgeStyle;rounded=0;sketch=0;orthogonalLoop=1;jettySize=auto;html=1;" edge="1" parent="WIyWlLk6GJQsqaUBKTNV-1" source="2sAaZkd2MSDt4CEduPBy-51" target="2sAaZkd2MSDt4CEduPBy-62">
          <mxGeometry relative="1" as="geometry" />
        </mxCell>
        <mxCell id="2sAaZkd2MSDt4CEduPBy-64" value="No" style="edgeLabel;html=1;align=center;verticalAlign=middle;resizable=0;points=[];" vertex="1" connectable="0" parent="2sAaZkd2MSDt4CEduPBy-63">
          <mxGeometry x="-0.2" relative="1" as="geometry">
            <mxPoint x="10" as="offset" />
          </mxGeometry>
        </mxCell>
        <mxCell id="2sAaZkd2MSDt4CEduPBy-72" style="edgeStyle=orthogonalEdgeStyle;rounded=0;sketch=0;orthogonalLoop=1;jettySize=auto;html=1;exitX=0;exitY=0.5;exitDx=0;exitDy=0;entryX=1;entryY=0.5;entryDx=0;entryDy=0;" edge="1" parent="WIyWlLk6GJQsqaUBKTNV-1" source="2sAaZkd2MSDt4CEduPBy-51" target="WIyWlLk6GJQsqaUBKTNV-12">
          <mxGeometry relative="1" as="geometry">
            <mxPoint x="730" y="530" as="targetPoint" />
          </mxGeometry>
        </mxCell>
        <mxCell id="2sAaZkd2MSDt4CEduPBy-74" value="Yes" style="edgeLabel;html=1;align=center;verticalAlign=middle;resizable=0;points=[];" vertex="1" connectable="0" parent="2sAaZkd2MSDt4CEduPBy-72">
          <mxGeometry x="-0.7523" y="-1" relative="1" as="geometry">
            <mxPoint x="-17" y="-15" as="offset" />
          </mxGeometry>
        </mxCell>
        <mxCell id="2sAaZkd2MSDt4CEduPBy-51" value="Биллинг на хите за отрисовку?" style="rhombus;whiteSpace=wrap;html=1;shadow=0;fontFamily=Helvetica;fontSize=12;align=center;strokeWidth=1;spacing=6;spacingTop=-4;direction=west;" vertex="1" parent="WIyWlLk6GJQsqaUBKTNV-1">
          <mxGeometry x="510" y="142.5" width="100" height="102.5" as="geometry" />
        </mxCell>
        <mxCell id="2sAaZkd2MSDt4CEduPBy-73" style="edgeStyle=orthogonalEdgeStyle;rounded=0;sketch=0;orthogonalLoop=1;jettySize=auto;html=1;entryX=1;entryY=0.5;entryDx=0;entryDy=0;" edge="1" parent="WIyWlLk6GJQsqaUBKTNV-1" source="2sAaZkd2MSDt4CEduPBy-62" target="2sAaZkd2MSDt4CEduPBy-65">
          <mxGeometry relative="1" as="geometry" />
        </mxCell>
        <mxCell id="2sAaZkd2MSDt4CEduPBy-62" value="Переводим порог для DSP из eCPM в CPMV деля на прогноз видимости" style="rounded=1;whiteSpace=wrap;html=1;shadow=0;strokeWidth=1;spacing=6;spacingTop=-4;" vertex="1" parent="WIyWlLk6GJQsqaUBKTNV-1">
          <mxGeometry x="500" y="301.25" width="120" height="60" as="geometry" />
        </mxCell>
        <mxCell id="2sAaZkd2MSDt4CEduPBy-65" value="Проводим аукцион в текущем виде" style="rounded=1;whiteSpace=wrap;html=1;shadow=0;strokeWidth=1;spacing=6;spacingTop=-4;" vertex="1" parent="WIyWlLk6GJQsqaUBKTNV-1">
          <mxGeometry x="330" y="301.25" width="120" height="60" as="geometry" />
        </mxCell>
        <mxCell id="2sAaZkd2MSDt4CEduPBy-82" value="&lt;font style=&quot;font-size: 12px;&quot;&gt;Данные в логах для DSP: &lt;br&gt;&lt;b&gt;real price&lt;/b&gt; - ставка в eCPM, которую мы получили &lt;br&gt;в ответе и которую мы с них спишем, &lt;br&gt;если случится CT = 3&lt;br&gt;&lt;b&gt;price&lt;/b&gt; - ставка в приведенная к CPMV, &lt;br&gt;делением на процент видимости, используемая в аукционе&lt;br&gt;&lt;/font&gt;" style="shape=parallelogram;html=1;strokeWidth=2;perimeter=parallelogramPerimeter;whiteSpace=wrap;rounded=1;arcSize=12;size=0.23;" vertex="1" parent="WIyWlLk6GJQsqaUBKTNV-1">
          <mxGeometry x="-400" y="691.25" width="510" height="97.5" as="geometry" />
        </mxCell>
        <mxCell id="2sAaZkd2MSDt4CEduPBy-93" value="&lt;font style=&quot;font-size: 12px;&quot;&gt;Данные в логах для DSP: &lt;br&gt;&lt;b&gt;real price&lt;/b&gt; - ставка в eCPM, которую мы получили &lt;br&gt;в ответе и которую мы с них спишем, &lt;br&gt;если случится CT = 3&lt;br&gt;&lt;b&gt;price&lt;/b&gt; - та же ставка DSP, т.к. аукцион первой цены&lt;br&gt;&lt;/font&gt;" style="shape=parallelogram;html=1;strokeWidth=2;perimeter=parallelogramPerimeter;whiteSpace=wrap;rounded=1;arcSize=12;size=0.23;" vertex="1" parent="WIyWlLk6GJQsqaUBKTNV-1">
          <mxGeometry x="720" y="690" width="510" height="100" as="geometry" />
        </mxCell>
        <mxCell id="2sAaZkd2MSDt4CEduPBy-144" value="No" style="edgeStyle=orthogonalEdgeStyle;rounded=0;sketch=0;orthogonalLoop=1;jettySize=auto;html=1;entryX=0.581;entryY=0;entryDx=0;entryDy=0;entryPerimeter=0;fontSize=11;" edge="1" parent="WIyWlLk6GJQsqaUBKTNV-1" source="2sAaZkd2MSDt4CEduPBy-97" target="2sAaZkd2MSDt4CEduPBy-130">
          <mxGeometry x="-1" y="-15" relative="1" as="geometry">
            <mxPoint as="offset" />
          </mxGeometry>
        </mxCell>
        <mxCell id="2sAaZkd2MSDt4CEduPBy-152" style="edgeStyle=orthogonalEdgeStyle;rounded=0;sketch=0;orthogonalLoop=1;jettySize=auto;html=1;entryX=0.906;entryY=0.416;entryDx=0;entryDy=0;fontSize=11;entryPerimeter=0;" edge="1" parent="WIyWlLk6GJQsqaUBKTNV-1" source="2sAaZkd2MSDt4CEduPBy-97" target="2sAaZkd2MSDt4CEduPBy-150">
          <mxGeometry relative="1" as="geometry">
            <Array as="points">
              <mxPoint x="400" y="920" />
              <mxPoint x="400" y="1317" />
            </Array>
          </mxGeometry>
        </mxCell>
        <mxCell id="2sAaZkd2MSDt4CEduPBy-156" value="Yes" style="edgeLabel;html=1;align=center;verticalAlign=middle;resizable=0;points=[];fontSize=11;" vertex="1" connectable="0" parent="2sAaZkd2MSDt4CEduPBy-152">
          <mxGeometry x="-0.9458" y="1" relative="1" as="geometry">
            <mxPoint x="-10" y="-9" as="offset" />
          </mxGeometry>
        </mxCell>
        <mxCell id="2sAaZkd2MSDt4CEduPBy-97" value="Биллингуем паблишера за&amp;nbsp;&lt;br style=&quot;border-color: var(--border-color);&quot;&gt;отрисовки?" style="strokeWidth=1;html=1;shape=mxgraph.flowchart.decision;whiteSpace=wrap;fontSize=10;" vertex="1" parent="WIyWlLk6GJQsqaUBKTNV-1">
          <mxGeometry x="165" y="870" width="100" height="100" as="geometry" />
        </mxCell>
        <mxCell id="2sAaZkd2MSDt4CEduPBy-146" style="edgeStyle=orthogonalEdgeStyle;rounded=0;sketch=0;orthogonalLoop=1;jettySize=auto;html=1;entryX=0.527;entryY=-0.012;entryDx=0;entryDy=0;entryPerimeter=0;fontSize=11;" edge="1" parent="WIyWlLk6GJQsqaUBKTNV-1" source="2sAaZkd2MSDt4CEduPBy-98" target="2sAaZkd2MSDt4CEduPBy-145">
          <mxGeometry relative="1" as="geometry" />
        </mxCell>
        <mxCell id="2sAaZkd2MSDt4CEduPBy-148" value="No" style="edgeLabel;html=1;align=center;verticalAlign=middle;resizable=0;points=[];fontSize=11;" vertex="1" connectable="0" parent="2sAaZkd2MSDt4CEduPBy-146">
          <mxGeometry x="-0.5327" y="-1" relative="1" as="geometry">
            <mxPoint x="12" y="-6" as="offset" />
          </mxGeometry>
        </mxCell>
        <mxCell id="2sAaZkd2MSDt4CEduPBy-153" style="edgeStyle=orthogonalEdgeStyle;rounded=0;sketch=0;orthogonalLoop=1;jettySize=auto;html=1;entryX=0;entryY=0.25;entryDx=0;entryDy=0;fontSize=11;" edge="1" parent="WIyWlLk6GJQsqaUBKTNV-1" source="2sAaZkd2MSDt4CEduPBy-98" target="2sAaZkd2MSDt4CEduPBy-151">
          <mxGeometry relative="1" as="geometry">
            <Array as="points">
              <mxPoint x="420" y="920" />
              <mxPoint x="420" y="1302" />
            </Array>
          </mxGeometry>
        </mxCell>
        <mxCell id="2sAaZkd2MSDt4CEduPBy-154" value="Yes" style="edgeLabel;html=1;align=center;verticalAlign=middle;resizable=0;points=[];fontSize=11;" vertex="1" connectable="0" parent="2sAaZkd2MSDt4CEduPBy-153">
          <mxGeometry x="-0.8664" y="-2" relative="1" as="geometry">
            <mxPoint x="26" y="-8" as="offset" />
          </mxGeometry>
        </mxCell>
        <mxCell id="2sAaZkd2MSDt4CEduPBy-98" value="Биллингуем паблишера за&amp;nbsp;&lt;br&gt;отрисовки?" style="strokeWidth=1;html=1;shape=mxgraph.flowchart.decision;whiteSpace=wrap;fontSize=10;" vertex="1" parent="WIyWlLk6GJQsqaUBKTNV-1">
          <mxGeometry x="569" y="870" width="100" height="100" as="geometry" />
        </mxCell>
        <mxCell id="2sAaZkd2MSDt4CEduPBy-130" value="&lt;b style=&quot;border-color: var(--border-color); font-size: 12px;&quot;&gt;partnerprice&amp;nbsp;&lt;/b&gt;&lt;span style=&quot;font-size: 12px;&quot;&gt;- price умноженная на &lt;br&gt;partnershare - д&lt;/span&gt;&lt;span style=&quot;font-size: 12px;&quot;&gt;еньги паблишера&lt;br&gt;&lt;/span&gt;&lt;span style=&quot;border-color: var(--border-color); font-size: 12px;&quot;&gt;&lt;br&gt;Добавляем в&amp;nbsp;&lt;/span&gt;&lt;b style=&quot;border-color: var(--border-color); font-size: 12px;&quot;&gt;Options &lt;/b&gt;&lt;span style=&quot;border-color: var(--border-color); font-size: 12px;&quot;&gt;указатель&lt;/span&gt;&lt;span style=&quot;border-color: var(--border-color); font-size: 12px;&quot;&gt;, для&amp;nbsp;&lt;br&gt;биллинга,&amp;nbsp;&lt;/span&gt;&lt;span style=&quot;border-color: var(--border-color); font-size: 12px;&quot;&gt;что DSP биллим&lt;br style=&quot;border-color: var(--border-color);&quot;&gt;по CT = 3,&lt;br style=&quot;border-color: var(--border-color);&quot;&gt;а паблишера за CT = 1&lt;/span&gt;&lt;span style=&quot;font-size: 12px;&quot;&gt;&lt;br&gt;&lt;/span&gt;" style="shape=parallelogram;html=1;strokeWidth=2;perimeter=parallelogramPerimeter;whiteSpace=wrap;rounded=1;arcSize=12;size=0.23;fontSize=11;" vertex="1" parent="WIyWlLk6GJQsqaUBKTNV-1">
          <mxGeometry x="28.5" y="1040" width="320" height="160" as="geometry" />
        </mxCell>
        <mxCell id="2sAaZkd2MSDt4CEduPBy-145" value="&lt;b style=&quot;border-color: var(--border-color); font-size: 12px;&quot;&gt;partnerprice&amp;nbsp;&lt;/b&gt;&lt;span style=&quot;font-size: 12px;&quot;&gt;- price деленная на &lt;br&gt;&amp;nbsp; &amp;nbsp; процент видимости и умноженная на &lt;br&gt;partnershare - д&lt;/span&gt;&lt;span style=&quot;font-size: 12px;&quot;&gt;еньги паблишера&lt;br&gt;&lt;/span&gt;&lt;span style=&quot;border-color: var(--border-color); font-size: 12px;&quot;&gt;&lt;br&gt;Добавляем в&amp;nbsp;&lt;/span&gt;&lt;b style=&quot;border-color: var(--border-color); font-size: 12px;&quot;&gt;Options &lt;/b&gt;&lt;span style=&quot;border-color: var(--border-color); font-size: 12px;&quot;&gt;указатель&lt;/span&gt;&lt;span style=&quot;border-color: var(--border-color); font-size: 12px;&quot;&gt;, для&amp;nbsp;&lt;br&gt;биллинга,&amp;nbsp;&lt;/span&gt;&lt;span style=&quot;border-color: var(--border-color); font-size: 12px;&quot;&gt;что DSP биллим&lt;br style=&quot;border-color: var(--border-color);&quot;&gt;по CT = 3,&lt;br style=&quot;border-color: var(--border-color);&quot;&gt;а паблишера за CT = 1&lt;/span&gt;&lt;span style=&quot;font-size: 12px;&quot;&gt;&lt;br&gt;&lt;/span&gt;" style="shape=parallelogram;html=1;strokeWidth=2;perimeter=parallelogramPerimeter;whiteSpace=wrap;rounded=1;arcSize=12;size=0.23;fontSize=11;" vertex="1" parent="WIyWlLk6GJQsqaUBKTNV-1">
          <mxGeometry x="450" y="1040" width="320" height="160" as="geometry" />
        </mxCell>
        <mxCell id="2sAaZkd2MSDt4CEduPBy-150" value="&lt;b style=&quot;border-color: var(--border-color); font-size: 12px;&quot;&gt;partnerprice&amp;nbsp;&lt;/b&gt;&lt;span style=&quot;border-color: var(--border-color); font-size: 12px;&quot;&gt;- price умноженная на&lt;br style=&quot;border-color: var(--border-color);&quot;&gt;&amp;nbsp; &amp;nbsp; процент видимости и умноженная на&lt;br style=&quot;border-color: var(--border-color);&quot;&gt;partnershare - д&lt;/span&gt;&lt;span style=&quot;border-color: var(--border-color); font-size: 12px;&quot;&gt;еньги паблишера&lt;br style=&quot;border-color: var(--border-color);&quot;&gt;&lt;/span&gt;&lt;span style=&quot;border-color: var(--border-color); font-size: 12px;&quot;&gt;&lt;br&gt;Добавляем в&amp;nbsp;&lt;/span&gt;&lt;b style=&quot;border-color: var(--border-color); font-size: 12px;&quot;&gt;Options &lt;/b&gt;&lt;span style=&quot;border-color: var(--border-color); font-size: 12px;&quot;&gt;указатель&lt;/span&gt;&lt;span style=&quot;border-color: var(--border-color); font-size: 12px;&quot;&gt;, для&amp;nbsp;&lt;br&gt;биллинга,&amp;nbsp;&lt;/span&gt;&lt;span style=&quot;border-color: var(--border-color); font-size: 12px;&quot;&gt;что и DSP и паблишера&lt;br&gt;&lt;/span&gt;&lt;span style=&quot;font-size: 12px;&quot;&gt;биллим по CT = 3&lt;br&gt;&lt;/span&gt;" style="shape=parallelogram;html=1;strokeWidth=2;perimeter=parallelogramPerimeter;whiteSpace=wrap;rounded=1;arcSize=12;size=0.23;fontSize=11;" vertex="1" parent="WIyWlLk6GJQsqaUBKTNV-1">
          <mxGeometry y="1250" width="320" height="160" as="geometry" />
        </mxCell>
        <mxCell id="2sAaZkd2MSDt4CEduPBy-151" value="&lt;b style=&quot;border-color: var(--border-color); font-size: 12px;&quot;&gt;partnerprice&amp;nbsp;&lt;/b&gt;&lt;span style=&quot;font-size: 12px;&quot;&gt;- price умноженная на &lt;br&gt;partnershare - д&lt;/span&gt;&lt;span style=&quot;font-size: 12px;&quot;&gt;еньги паблишера&lt;br&gt;&lt;/span&gt;&lt;span style=&quot;border-color: var(--border-color); font-size: 12px;&quot;&gt;&lt;br&gt;&lt;/span&gt;&lt;span style=&quot;border-color: var(--border-color); font-size: 12px;&quot;&gt;Добавляем в&amp;nbsp;&lt;/span&gt;&lt;b style=&quot;border-color: var(--border-color); font-size: 12px;&quot;&gt;Options&amp;nbsp;&lt;/b&gt;&lt;span style=&quot;border-color: var(--border-color); font-size: 12px;&quot;&gt;указатель&lt;/span&gt;&lt;span style=&quot;border-color: var(--border-color); font-size: 12px;&quot;&gt;, для&amp;nbsp;&lt;br style=&quot;border-color: var(--border-color);&quot;&gt;биллинга,&amp;nbsp;&lt;/span&gt;&lt;span style=&quot;border-color: var(--border-color); font-size: 12px;&quot;&gt;что и DSP и паблишера&lt;br style=&quot;border-color: var(--border-color);&quot;&gt;&lt;/span&gt;&lt;span style=&quot;border-color: var(--border-color); font-size: 12px;&quot;&gt;биллим по CT = 3&lt;/span&gt;&lt;span style=&quot;font-size: 12px;&quot;&gt;&lt;br&gt;&lt;/span&gt;" style="shape=parallelogram;html=1;strokeWidth=2;perimeter=parallelogramPerimeter;whiteSpace=wrap;rounded=1;arcSize=12;size=0.23;fontSize=11;" vertex="1" parent="WIyWlLk6GJQsqaUBKTNV-1">
          <mxGeometry x="450" y="1250" width="320" height="160" as="geometry" />
        </mxCell>
      </root>
    </mxGraphModel>
  </diagram>
</mxfile>
